<?xml version="1.0" encoding="utf-8"?>
<!-- Generator: Adobe Illustrator 23.0.3, SVG Export Plug-In . SVG Version: 6.00 Build 0)  -->
<svg version="1.1" id="Layer_1" xmlns="http://www.w3.org/2000/svg" xmlns:xlink="http://www.w3.org/1999/xlink" x="0px" y="0px"
	 viewBox="0 0 179 40" style="enable-background:new 0 0 179 40;" xml:space="preserve">
<style type="text/css">
	.st0{fill:#FFFFFF;}
	.st1{opacity:0.3185;fill-rule:evenodd;clip-rule:evenodd;fill:#FFFFFF;enable-background:new    ;}
</style>
<title>Group 7</title>
<desc>Created with Sketch.</desc>
<g id="Symbols">
	<g id="Group-7">
		<path id="Staradmin" class="st0" d="M65.7-35.4c-0.3-1.4-1.3-2.1-3-2.1c-0.9,0-1.5,0.2-2,0.5c-0.5,0.3-0.7,0.8-0.7,1.2
			c0,0.5,0.2,0.9,0.5,1.1s0.8,0.5,1.4,0.8l3.5,1.4c1.2,0.5,2.1,1.1,2.8,1.8c0.7,0.7,1,1.6,1,2.7c0,1.5-0.5,2.6-1.6,3.5
			s-2.7,1.3-4.7,1.3c-1.8,0-3.3-0.4-4.4-1.3c-1.3-1-1.9-2.3-2-4.1h2.9c0,1.3,0.7,2.2,2.1,2.5c0.4,0.1,1,0.2,1.7,0.2
			c0.7,0,1.3-0.2,1.9-0.5c0.6-0.3,0.9-0.8,0.9-1.4c0-0.6-0.2-1-0.5-1.3c-0.3-0.3-0.8-0.6-1.5-0.9l-3.2-1.3c-1.3-0.5-2.2-1-2.9-1.7
			c-0.7-0.7-1-1.5-1-2.7c0-1.4,0.5-2.4,1.6-3.2c1.1-0.8,2.5-1.2,4.3-1.2c1.8,0,3.2,0.4,4.2,1.3s1.6,2,1.7,3.5H65.7z M79.9-24
			c-1.1,0.4-2,0.6-2.6,0.6c-0.6,0-1.2-0.1-1.7-0.2c-0.5-0.2-0.9-0.4-1.3-0.7c-0.8-0.7-1.2-1.6-1.2-2.8v-6.8h-1.7v-2h1.7V-39h3v3.2
			h3.3v2h-3.3v6.7c0,1,0.5,1.5,1.4,1.5c0.5,0,1.1-0.1,1.9-0.4L79.9-24z M87-30.8c1,0,2.1,0.2,3.3,0.5v-1.2c0-0.9-0.2-1.5-0.5-1.9
			c-0.3-0.4-0.9-0.6-1.7-0.6s-1.4,0.2-1.8,0.5c-0.4,0.3-0.6,0.7-0.6,1.3h-3.2c0-1.4,0.5-2.4,1.5-3c1-0.6,2.3-0.9,4.1-0.9
			c2.5,0,4.1,0.9,4.8,2.6c0.3,0.6,0.4,1.3,0.4,2.1v7.7h-2.6l-0.2-1.6c-0.8,1.3-2,2-3.6,2c-1.6,0-2.8-0.4-3.7-1.1
			c-0.8-0.7-1.2-1.7-1.2-2.8s0.4-2,1.3-2.6S85.4-30.8,87-30.8z M90.3-28.4c-1-0.3-1.9-0.4-2.8-0.4c-1.6,0-2.4,0.5-2.4,1.6
			c0,0.5,0.2,0.8,0.6,1.2c0.4,0.3,1,0.5,1.8,0.5c0.8,0,1.5-0.3,2-0.8S90.3-27.6,90.3-28.4z M100.5-33.4c0.7-1.8,1.8-2.6,3.3-2.6
			c0.3,0,0.6,0.1,1.1,0.2l0,3c-0.5-0.1-0.9-0.2-1.4-0.2c-2,0-3,1.4-3,4.1v5.3h-2.9v-12.2h2.9V-33.4z M112-30.8c1,0,2.1,0.2,3.3,0.5
			v-1.2c0-0.9-0.2-1.5-0.5-1.9c-0.3-0.4-0.9-0.6-1.7-0.6s-1.4,0.2-1.8,0.5c-0.4,0.3-0.6,0.7-0.6,1.3h-3.2c0-1.4,0.5-2.4,1.5-3
			c1-0.6,2.3-0.9,4.1-0.9c2.5,0,4.1,0.9,4.8,2.6c0.3,0.6,0.4,1.3,0.4,2.1v7.7h-2.6l-0.2-1.6c-0.8,1.3-2,2-3.6,2
			c-1.6,0-2.8-0.4-3.7-1.1c-0.8-0.7-1.2-1.7-1.2-2.8s0.4-2,1.3-2.6S110.4-30.8,112-30.8z M115.3-28.4c-1-0.3-1.9-0.4-2.8-0.4
			c-1.6,0-2.4,0.5-2.4,1.6c0,0.5,0.2,0.8,0.6,1.2c0.4,0.3,1,0.5,1.8,0.5c0.8,0,1.5-0.3,2-0.8S115.3-27.6,115.3-28.4z M130.5-25.5
			c-0.8,1.5-1.9,2.2-3.5,2.2c-1.6,0-2.8-0.6-3.9-1.8c-1.1-1.2-1.6-2.8-1.6-4.7s0.5-3.4,1.6-4.6c1-1.2,2.3-1.7,3.8-1.7
			s2.7,0.6,3.4,1.8v-6.5h3v17.1h-2.4L130.5-25.5z M127.4-33.5c-0.8,0-1.5,0.3-2.1,1c-0.6,0.7-0.8,1.6-0.8,2.7s0.3,2,0.8,2.7
			c0.6,0.7,1.3,1,2.2,1c0.7,0,1.4-0.3,1.9-0.8c0.6-0.6,0.9-1.3,0.9-2.2v-1.6c0-0.9-0.3-1.6-0.9-2.1
			C128.9-33.2,128.2-33.5,127.4-33.5z M148.7-33.5c0.8-1.8,2.2-2.6,4.1-2.6c1.5,0,2.6,0.5,3.4,1.5c0.8,0.9,1.2,2.2,1.2,3.9v7.1h-3
			v-7.1c0-0.9-0.2-1.6-0.6-2s-1-0.7-1.8-0.7c-0.8,0-1.4,0.3-1.9,1c-0.5,0.7-0.8,1.7-0.8,3.1v5.7h-2.9v-7.1c0-0.9-0.2-1.6-0.7-2
			s-1-0.7-1.8-0.7s-1.5,0.3-2,1c-0.6,0.7-0.9,1.7-0.9,3.1v5.6h-2.9v-12.1h2.6l0.3,2.1c0.8-1.6,2.1-2.4,3.9-2.4c1,0,1.9,0.2,2.5,0.7
			C147.9-35,148.4-34.3,148.7-33.5z M161.9-35.8h2.9v12.2h-2.9V-35.8z M161.5-39.7c0-0.5,0.2-1,0.5-1.3s0.8-0.5,1.4-0.5
			c0.6,0,1,0.2,1.3,0.5c0.3,0.3,0.5,0.7,0.5,1.3s-0.2,1-0.5,1.3c-0.3,0.3-0.8,0.5-1.3,0.5c-0.6,0-1-0.2-1.4-0.5
			C161.7-38.8,161.5-39.2,161.5-39.7z M172.7-33.7c0.8-1.6,2.1-2.4,3.8-2.4c1.5,0,2.6,0.5,3.4,1.5c0.8,1,1.1,2.3,1.1,3.9v7.1h-2.9
			v-7.1c0-0.9-0.2-1.6-0.7-2s-1-0.7-1.8-0.7s-1.5,0.3-2,1c-0.6,0.7-0.9,1.7-0.9,3.1v5.6h-3v-12.1h2.6L172.7-33.7z"/>
		<g id="Group">
			<circle id="Oval" class="st1" cx="18.8" cy="-20.2" r="20"/>
			<path id="S" class="st0" d="M24.4-9.3c0-0.5-0.2-0.9-0.5-1.2s-1-0.6-1.9-0.9s-1.6-0.6-2.2-0.9c-1.8-0.9-2.8-2.1-2.8-3.7
				c0-0.8,0.2-1.5,0.7-2.1s1.1-1.1,1.9-1.4c0.8-0.3,1.8-0.5,2.8-0.5c1,0,1.9,0.2,2.7,0.5c0.8,0.4,1.4,0.9,1.9,1.6s0.7,1.4,0.7,2.3
				h-3.4c0-0.6-0.2-1-0.5-1.3s-0.8-0.5-1.4-0.5c-0.6,0-1.1,0.1-1.5,0.4s-0.5,0.6-0.5,1c0,0.4,0.2,0.7,0.6,1s1.1,0.6,2.1,0.9
				c1,0.3,1.8,0.7,2.4,1c1.5,0.9,2.3,2.1,2.3,3.7c0,1.2-0.5,2.2-1.4,2.9s-2.2,1.1-3.9,1.1c-1.2,0-2.2-0.2-3.1-0.6s-1.6-1-2.1-1.7
				s-0.7-1.5-0.7-2.5h3.4c0,0.8,0.2,1.3,0.6,1.7s1,0.5,1.9,0.5c0.6,0,1-0.1,1.3-0.4S24.4-8.8,24.4-9.3z"/>
			<path id="S_1_" class="st0" d="M50.8-9.3c0-0.5-0.2-0.9-0.5-1.2s-1-0.6-1.9-0.9c-0.9-0.3-1.6-0.6-2.2-0.9
				c-1.8-0.9-2.8-2.1-2.8-3.7c0-0.8,0.2-1.5,0.7-2.1c0.5-0.6,1.1-1.1,1.9-1.4c0.8-0.3,1.8-0.5,2.8-0.5c1,0,1.9,0.2,2.7,0.5
				c0.8,0.4,1.4,0.9,1.9,1.6c0.4,0.7,0.7,1.4,0.7,2.3h-3.4c0-0.6-0.2-1-0.5-1.3s-0.8-0.5-1.4-0.5c-0.6,0-1.1,0.1-1.5,0.4
				s-0.5,0.6-0.5,1c0,0.4,0.2,0.7,0.6,1c0.4,0.3,1.1,0.6,2.1,0.9c1,0.3,1.8,0.7,2.4,1c1.5,0.9,2.3,2.1,2.3,3.7
				c0,1.2-0.5,2.2-1.4,2.9S50.6-5.3,49-5.3c-1.2,0-2.2-0.2-3.1-0.6s-1.6-1-2.1-1.7S43-9.1,43-10.1h3.4c0,0.8,0.2,1.3,0.6,1.7
				s1,0.5,1.9,0.5c0.6,0,1-0.1,1.3-0.4S50.8-8.8,50.8-9.3z"/>
		</g>
	</g>
</g>
</svg>
